<?xml version="1.0" encoding="utf-8"?>
<svg xmlns="http://www.w3.org/2000/svg" viewBox="0 0 500 500">
  <path d="M 165.582 124.332 C 122.401 138.984 52.724 182.024 26.227 210.413 C 7.581 229.645 7.581 230.56 33.096 255.276 C 57.631 279.086 58.612 281.833 43.891 301.98 C 22.301 330.369 37.022 340.442 60.575 312.969 C 78.239 292.822 80.202 291.907 104.737 307.474 C 126.327 320.296 129.271 327.621 123.383 354.179 C 119.457 373.409 121.42 385.315 128.289 385.315 C 134.178 385.315 141.047 372.494 144.973 356.926 C 148.898 336.779 154.787 330.369 166.563 334.948 C 175.395 338.611 194.041 343.189 209.743 345.937 C 232.315 350.516 236.24 355.095 236.24 381.651 C 236.24 399.052 241.147 412.787 246.054 412.787 C 251.942 412.787 255.868 399.052 255.868 381.651 C 255.868 354.179 259.793 350.516 286.29 345.021 C 330.452 336.779 331.434 337.695 338.303 362.42 C 348.117 397.219 365.791 390.809 358.912 355.095 C 353.024 329.453 355.968 323.959 383.456 309.307 C 412.897 292.822 413.879 292.822 431.543 313.886 C 455.096 340.442 469.817 329.453 448.227 301.98 C 433.506 281.833 434.488 279.086 460.003 254.37 L 486.5 227.812 L 444.301 193.013 C 358.912 121.584 248.017 94.112 165.582 124.332 Z" style="fill: rgb(255, 251, 235);"/>
</svg>