<?xml version="1.0" standalone="no"?>
<!DOCTYPE svg PUBLIC "-//W3C//DTD SVG 20010904//EN"
 "http://www.w3.org/TR/2001/REC-SVG-20010904/DTD/svg10.dtd">
<svg version="1.0" xmlns="http://www.w3.org/2000/svg"
 width="48.000000pt" height="48.000000pt" viewBox="0 0 48.000000 48.000000"
 preserveAspectRatio="xMidYMid meet">
<metadata>
Created by potrace 1.16, written by Peter Selinger 2001-2019
</metadata>
<g transform="translate(0.000000,48.000000) scale(0.100000,-0.100000)"
fill="#000000" stroke="none">
<path d="M105 401 c-55 -23 -79 -95 -50 -151 16 -31 171 -190 185 -190 16 0
177 169 189 198 41 98 -62 188 -154 133 -35 -20 -35 -20 -68 -1 -34 21 -68 24
-102 11z m100 -52 l35 -31 35 31 c43 37 78 39 110 6 46 -45 30 -87 -74 -190
l-71 -69 -71 69 c-104 103 -120 145 -74 190 32 33 67 31 110 -6z"/>
</g>
</svg>
