<?xml version="1.0" encoding="utf-8"?>
<svg xmlns="http://www.w3.org/2000/svg" viewBox="0 0 500 500">
  <g transform="matrix(0.1, 0, 0, -0.1, 135.17099, 187.030243)" fill="#000000" stroke="none">
    <g>
      <path d="M 333.164 616.888 C -332.6 368.472 -1356.1 -436.4 -1207.1 -585.46 C -1177.2 -615.29 -938.77 -466.23 -670.45 -247.6 C 64.868 368.472 412.659 507.591 1147.99 507.591 C 1883.3 507.591 2231.09 368.472 2966.42 -247.6 C 3572.57 -754.34 3731.56 -635.12 3155.22 -128.38 C 2290.72 646.7 1167.86 944.81 333.164 616.888 Z" style="fill: rgb(255, 251, 235);"/>
      <path d="M 810.124 110.116 C 502.085 -187.94 720.698 -724.61 1147.99 -724.61 C 1386.46 -724.61 1644.83 -466.23 1644.83 -227.78 C 1644.83 10.769 1386.46 269.106 1147.99 269.106 C 1048.62 269.106 889.619 199.542 810.124 110.116 Z" style="fill: rgb(120, 53, 15);"/>
      <path d="M -392.23 -207.86 C -1107.7 -724.61 -1117.7 -764.35 -571.09 -1161.8 C 601.451 -2016.4 1694.51 -2016.4 2876.98 -1161.8 L 3353.95 -804.09 L 3095.6 -545.72 C 2956.48 -396.66 2708.06 -197.95 2539.13 -98.547 L 2241.04 80.305 L 2241.04 -178.03 C 2241.04 -754.34 1694.51 -1320.8 1147.99 -1320.8 C 839.936 -1320.8 372.907 -1052.5 233.789 -794.09 C 174.175 -674.86 94.68 -426.49 64.868 -247.6 L 5.244 90.245 L -392.23 -207.86 Z" style="fill: rgb(255, 251, 235);"/>
    </g>
  </g>
</svg>